# xmcd
#
# Track frame offsets: 
#        150
#        10360
#        28440
#        41989
#        56938
#        68824
#        83185
#        97371
#        111465
#        125186
#        137599
#
# Disc length: 1846 seconds
#
# Revision: 0
# Processed by: cddbd v1.5.2PL0 Copyright (c) Steve Scherf et al.
# Submitted via: ExactAudioCopy v0.95b4
#
DISCID=b207340b
DTITLE=Clue and the Honkytones - Thrown Thru the Windshield
DYEAR=2006
DGENRE=Country
TTITLE0=your Lovins Gonna Keep Me Alive
TTITLE1=Baby I'm Sorry
TTITLE2=Thrown Thru the Windshiled
TTITLE3=Cure for the Lovesick Blues
TTITLE4=Wild Runner
TTITLE5=Smilin' All the Time
TTITLE6=Two Teardrops and a Sixpack
TTITLE7=Highway of Love
TTITLE8=90 Proof Mistake
TTITLE9=Elvis is Dead
TTITLE10=??? (Outtake)
EXTD=
EXTT0=
EXTT1=
EXTT2=
EXTT3=
EXTT4=
EXTT5=
EXTT6=
EXTT7=
EXTT8=
EXTT9=
EXTT10=
PLAYORDER=
